<svg width="44" height="34" viewBox="0 0 44 34" fill="none" xmlns="http://www.w3.org/2000/svg">
<rect width="44" height="34" rx="5" fill="#030303"/>
<path d="M9.05664 12.4053C9.47982 12.4307 9.83529 12.4518 10.123 12.4688C10.4193 12.4772 10.6647 12.4857 10.8594 12.4941C11.0794 12.5026 11.2656 12.5026 11.418 12.4941C11.5703 12.4857 11.7777 12.4645 12.04 12.4307C12.2601 12.4053 12.5521 12.3672 12.916 12.3164C13.2884 12.2572 13.7497 12.181 14.2998 12.0879C14.1051 12.2826 13.9528 12.4603 13.8428 12.6211C13.7412 12.7734 13.6608 12.9046 13.6016 13.0146C13.5339 13.1501 13.4873 13.2643 13.4619 13.3574C13.445 13.4421 13.4619 13.6536 13.5127 13.9922C13.5635 14.3307 13.6354 14.7327 13.7285 15.1982C13.8216 15.6553 13.9232 16.1462 14.0332 16.6709C14.1432 17.1872 14.2533 17.6738 14.3633 18.1309C14.4733 18.5794 14.5706 18.9645 14.6553 19.2861C14.7484 19.5993 14.8161 19.7855 14.8584 19.8447C14.9854 20.0225 15.0658 20.141 15.0996 20.2002C15.1335 20.251 15.1927 20.2975 15.2773 20.3398C15.3112 20.3568 15.3662 20.3822 15.4424 20.416C15.5101 20.4499 15.599 20.4922 15.709 20.543C15.8275 20.5938 15.9756 20.653 16.1533 20.7207C15.8232 20.7376 15.5397 20.7503 15.3027 20.7588C15.0658 20.7588 14.8711 20.763 14.7188 20.7715C14.541 20.7799 14.3887 20.7884 14.2617 20.7969C14.1348 20.7969 13.9824 20.8053 13.8047 20.8223C13.6523 20.8392 13.4535 20.8561 13.208 20.873C12.971 20.89 12.6917 20.9069 12.3701 20.9238C12.5394 20.8053 12.6748 20.6995 12.7764 20.6064C12.8864 20.5049 12.971 20.4202 13.0303 20.3525C13.098 20.2679 13.1445 20.1917 13.1699 20.124C13.1868 20.0479 13.1995 19.9336 13.208 19.7812C13.2165 19.6458 13.2165 19.4681 13.208 19.248C13.1995 19.0195 13.1784 18.7233 13.1445 18.3594L9.80566 18.7021C9.72103 18.846 9.65755 18.973 9.61523 19.083C9.57292 19.1846 9.54329 19.2734 9.52637 19.3496C9.50098 19.4427 9.49251 19.5189 9.50098 19.5781C9.5179 19.6458 9.54753 19.7262 9.58984 19.8193C9.63216 19.904 9.69141 20.0055 9.76758 20.124C9.85221 20.234 9.97493 20.3652 10.1357 20.5176C9.92415 20.5091 9.70833 20.5049 9.48828 20.5049C9.26823 20.5049 9.0651 20.5091 8.87891 20.5176C8.65885 20.526 8.44303 20.5345 8.23145 20.543C8.01986 20.5514 7.77865 20.5641 7.50781 20.5811C7.2793 20.598 7.0127 20.6191 6.70801 20.6445C6.39486 20.6615 6.06055 20.6868 5.70508 20.7207C5.92513 20.6191 6.11133 20.5176 6.26367 20.416C6.41602 20.306 6.54297 20.2044 6.64453 20.1113C6.76302 20.0098 6.86458 19.9124 6.94922 19.8193C7.00846 19.7347 7.12695 19.54 7.30469 19.2354C7.48242 18.9222 7.68132 18.554 7.90137 18.1309C8.12988 17.7077 8.36686 17.2549 8.6123 16.7725C8.86621 16.29 9.09473 15.8372 9.29785 15.4141C9.50098 14.9824 9.66602 14.61 9.79297 14.2969C9.91992 13.9837 9.9834 13.7806 9.9834 13.6875C9.96647 13.5775 9.92415 13.4548 9.85645 13.3193C9.7972 13.2008 9.7041 13.0654 9.57715 12.9131C9.45866 12.7607 9.28516 12.5915 9.05664 12.4053ZM12.9922 17.4199C12.9414 17.1237 12.8949 16.8698 12.8525 16.6582C12.8102 16.4382 12.7764 16.2562 12.751 16.1123C12.7171 15.943 12.6917 15.7949 12.6748 15.668C12.6494 15.5495 12.6198 15.3971 12.5859 15.2109C12.5521 15.0501 12.5098 14.8512 12.459 14.6143C12.4167 14.3688 12.3617 14.0768 12.2939 13.7383C11.8115 14.7031 11.4349 15.4521 11.1641 15.9854C10.9017 16.5101 10.7113 16.8952 10.5928 17.1406C10.4489 17.4284 10.3685 17.5977 10.3516 17.6484L12.9922 17.4199ZM15.6836 16.3408C16.0137 16.3493 16.3141 16.3535 16.585 16.3535C16.8643 16.3535 17.1055 16.3535 17.3086 16.3535C17.5456 16.3535 17.7614 16.3493 17.9561 16.3408C18.1592 16.3408 18.4173 16.3324 18.7305 16.3154C19.0013 16.307 19.3398 16.2943 19.7461 16.2773C20.1608 16.2604 20.6644 16.2393 21.2568 16.2139L21.1934 17.5088C20.7194 17.4749 20.3216 17.4538 20 17.4453C19.6868 17.4284 19.4329 17.4157 19.2383 17.4072C19.0098 17.3988 18.8236 17.3988 18.6797 17.4072C18.5358 17.4157 18.3327 17.4284 18.0703 17.4453C17.8503 17.4622 17.5498 17.4834 17.1689 17.5088C16.7965 17.5257 16.3226 17.5553 15.7471 17.5977L15.6836 16.3408ZM21.0537 11.9863C21.3499 12.0202 21.5996 12.0456 21.8027 12.0625C22.0059 12.071 22.1667 12.0794 22.2852 12.0879C22.429 12.0964 22.5433 12.1006 22.6279 12.1006C22.7718 12.1006 22.9368 12.0964 23.123 12.0879C23.2839 12.0794 23.4701 12.0667 23.6816 12.0498C23.9017 12.0244 24.1387 11.9863 24.3926 11.9355C24.2741 12.0625 24.1768 12.1852 24.1006 12.3037C24.0244 12.4137 23.9652 12.5153 23.9229 12.6084C23.8721 12.71 23.8298 12.8031 23.7959 12.8877C23.762 12.9977 23.724 13.167 23.6816 13.3955C23.6393 13.5902 23.5928 13.8652 23.542 14.2207C23.4997 14.5762 23.4447 15.0417 23.377 15.6172C23.6647 15.6257 23.9144 15.6299 24.126 15.6299C24.3376 15.6214 24.5153 15.6172 24.6592 15.6172H25.0781C25.1966 15.6087 25.332 15.6003 25.4844 15.5918C25.7383 15.5833 26.1234 15.5579 26.6396 15.5156C26.682 15.1263 26.7031 14.792 26.7031 14.5127C26.7116 14.2249 26.7074 13.9837 26.6904 13.7891C26.6735 13.569 26.6481 13.3828 26.6143 13.2305C26.5889 13.1458 26.5508 13.0443 26.5 12.9258C26.4577 12.8242 26.3984 12.7015 26.3223 12.5576C26.2546 12.4053 26.1615 12.2233 26.043 12.0117C26.263 12.0456 26.4577 12.071 26.627 12.0879C26.8047 12.0964 26.9528 12.1048 27.0713 12.1133C27.2067 12.1217 27.321 12.126 27.4141 12.126C27.5072 12.126 27.6299 12.1217 27.7822 12.1133C27.9092 12.1048 28.0658 12.1006 28.252 12.1006C28.4382 12.0921 28.6667 12.0794 28.9375 12.0625C28.8698 12.181 28.8105 12.3037 28.7598 12.4307C28.709 12.5576 28.6667 12.6719 28.6328 12.7734C28.599 12.8919 28.5651 13.0104 28.5312 13.1289C28.4889 13.3066 28.4508 13.5648 28.417 13.9033C28.3916 14.2419 28.3662 14.6185 28.3408 15.0332C28.3239 15.4479 28.307 15.8796 28.29 16.3281C28.2816 16.7767 28.2731 17.1999 28.2646 17.5977C28.2646 17.9954 28.2689 18.3509 28.2773 18.6641C28.2858 18.9688 28.3027 19.1846 28.3281 19.3115C28.3535 19.4639 28.3958 19.6204 28.4551 19.7812C28.5059 19.9251 28.5736 20.0817 28.6582 20.251C28.7428 20.4118 28.8529 20.5641 28.9883 20.708L25.9287 20.9365C26.0557 20.818 26.1572 20.7038 26.2334 20.5938C26.3096 20.4753 26.3688 20.3737 26.4111 20.2891C26.4535 20.196 26.4831 20.1071 26.5 20.0225C26.5085 19.9209 26.5212 19.7432 26.5381 19.4893C26.555 19.2777 26.5719 18.9772 26.5889 18.5879C26.6058 18.1986 26.6227 17.6823 26.6396 17.0391C26.5212 17.0391 26.3773 17.0433 26.208 17.0518C26.0472 17.0518 25.8949 17.056 25.751 17.0645C25.5817 17.0729 25.404 17.0771 25.2178 17.0771C25.0316 17.0856 24.8369 17.0941 24.6338 17.1025C24.4645 17.1195 24.2741 17.1364 24.0625 17.1533C23.8594 17.1618 23.6562 17.1745 23.4531 17.1914C23.4362 17.5469 23.4362 17.86 23.4531 18.1309C23.4701 18.3932 23.4954 18.6175 23.5293 18.8037C23.5632 19.0238 23.6055 19.2142 23.6562 19.375C23.707 19.5273 23.762 19.6797 23.8213 19.832C23.8721 19.9674 23.9313 20.1113 23.999 20.2637C24.0752 20.416 24.1514 20.5514 24.2275 20.6699C24.0667 20.653 23.9186 20.6403 23.7832 20.6318C23.6478 20.6149 23.5293 20.598 23.4277 20.5811C23.3092 20.5726 23.195 20.5641 23.085 20.5557C22.9749 20.5557 22.8438 20.5514 22.6914 20.543C22.556 20.5345 22.3867 20.5303 22.1836 20.5303C21.9805 20.5218 21.7435 20.5176 21.4727 20.5176C21.6335 20.3568 21.7604 20.2002 21.8535 20.0479C21.9551 19.887 22.027 19.7432 22.0693 19.6162C22.1201 19.4639 22.154 19.3242 22.1709 19.1973C22.1794 19.0872 22.1836 18.8799 22.1836 18.5752C22.1921 18.2705 22.1921 17.9235 22.1836 17.5342C22.1836 17.1364 22.1794 16.7217 22.1709 16.29C22.1624 15.8499 22.1497 15.4395 22.1328 15.0586C22.1243 14.6777 22.1117 14.3519 22.0947 14.0811C22.0863 13.8018 22.0778 13.6283 22.0693 13.5605C22.027 13.4082 21.9635 13.2432 21.8789 13.0654C21.8027 12.9215 21.7012 12.7565 21.5742 12.5703C21.4473 12.3757 21.2738 12.181 21.0537 11.9863ZM29.4072 11.9355C29.695 11.9779 29.9489 12.0075 30.1689 12.0244C30.3975 12.0413 30.5879 12.0583 30.7402 12.0752C30.918 12.0921 31.0703 12.1006 31.1973 12.1006H31.6924C32.0225 12.1006 32.5684 12.0879 33.3301 12.0625C33.1439 12.1217 32.9873 12.2064 32.8604 12.3164C32.7419 12.4264 32.6445 12.5407 32.5684 12.6592C32.4753 12.7946 32.4076 12.9342 32.3652 13.0781C32.3145 13.2559 32.2679 13.4928 32.2256 13.7891C32.1833 14.0514 32.141 14.3942 32.0986 14.8174C32.0648 15.2406 32.0309 15.7695 31.9971 16.4043C32.361 15.9896 32.6784 15.6214 32.9492 15.2998C33.2285 14.9782 33.4697 14.6947 33.6729 14.4492C33.876 14.2038 34.0452 13.9922 34.1807 13.8145C34.3245 13.6367 34.443 13.4844 34.5361 13.3574C34.7562 13.0697 34.8831 12.875 34.917 12.7734C34.9255 12.7142 34.9212 12.6423 34.9043 12.5576C34.8874 12.4899 34.862 12.4095 34.8281 12.3164C34.7943 12.2148 34.7435 12.1048 34.6758 11.9863C35.0143 12.0033 35.3021 12.016 35.5391 12.0244C35.7845 12.0329 35.9876 12.0413 36.1484 12.0498C36.3346 12.0583 36.487 12.0625 36.6055 12.0625H37.1387C37.3333 12.0625 37.5872 12.0625 37.9004 12.0625C38.2135 12.054 38.6071 12.0456 39.0811 12.0371C38.7679 12.1133 38.4717 12.2148 38.1924 12.3418C37.9131 12.4688 37.6634 12.5915 37.4434 12.71C37.1895 12.8538 36.9525 13.002 36.7324 13.1543C36.5124 13.3236 36.2669 13.5225 35.9961 13.751C35.7676 13.9456 35.501 14.1868 35.1963 14.4746C34.8916 14.7539 34.5615 15.0798 34.2061 15.4521C34.5869 16.1969 34.917 16.8105 35.1963 17.293C35.484 17.7669 35.7253 18.1478 35.9199 18.4355C36.14 18.7741 36.3262 19.0322 36.4785 19.21C36.6309 19.3708 36.8086 19.5358 37.0117 19.7051C37.181 19.849 37.3926 20.0098 37.6465 20.1875C37.9004 20.3568 38.1924 20.5218 38.5225 20.6826L34.9043 20.8604C34.9551 20.7926 34.9847 20.7122 34.9932 20.6191C35.0101 20.5176 35.0186 20.4245 35.0186 20.3398C35.0186 20.2467 35.0101 20.1452 34.9932 20.0352C34.9593 19.8997 34.8704 19.6797 34.7266 19.375C34.6081 19.1126 34.4261 18.7445 34.1807 18.2705C33.9352 17.7881 33.5967 17.1533 33.165 16.3662L32.0859 17.4961C32.0436 17.7669 32.0225 18.0124 32.0225 18.2324C32.0225 18.4525 32.0309 18.6344 32.0479 18.7783C32.0732 18.9561 32.1071 19.1084 32.1494 19.2354C32.2002 19.3623 32.2721 19.5062 32.3652 19.667C32.4414 19.8109 32.543 19.9801 32.6699 20.1748C32.7969 20.3695 32.9577 20.5853 33.1523 20.8223C32.9577 20.7715 32.763 20.7376 32.5684 20.7207C32.3737 20.6953 32.196 20.6784 32.0352 20.6699C31.849 20.6615 31.6712 20.6657 31.502 20.6826C31.3242 20.6995 31.1169 20.7249 30.8799 20.7588C30.6768 20.7926 30.4271 20.835 30.1309 20.8857C29.8346 20.9365 29.4961 21 29.1152 21.0762C29.3014 20.9661 29.4495 20.8477 29.5596 20.7207C29.6696 20.5938 29.7585 20.471 29.8262 20.3525C29.9023 20.2171 29.9531 20.0859 29.9785 19.959C29.9954 19.849 30.0081 19.612 30.0166 19.248C30.0335 18.8841 30.042 18.4609 30.042 17.9785C30.0505 17.4876 30.0505 16.9714 30.042 16.4297C30.0335 15.888 30.0251 15.3802 30.0166 14.9062C30.0081 14.4323 29.9954 14.0303 29.9785 13.7002C29.9701 13.3617 29.9616 13.1543 29.9531 13.0781C29.9277 12.9596 29.8939 12.8327 29.8516 12.6973C29.8092 12.5788 29.75 12.4561 29.6738 12.3291C29.6061 12.1937 29.5173 12.0625 29.4072 11.9355Z" fill="white"/>
</svg>
